<?xml version="1.0" encoding="UTF-8"?>
<svg version="1.1" xmlns="http://www.w3.org/2000/svg" width="32" height="32">
<path d="M0 0 C10.56 0 21.12 0 32 0 C32 10.56 32 21.12 32 32 C21.44 32 10.88 32 0 32 C0 21.44 0 10.88 0 0 Z " fill="#000000" transform="translate(0,0)"/>
<path d="M0 0 C2.64 0 5.28 0 8 0 C8 0.99 8 1.98 8 3 C8.66 3 9.32 3 10 3 C10 2.01 10 1.02 10 0 C12.64 0 15.28 0 18 0 C18 0.99 18 1.98 18 3 C16.35 3 14.7 3 13 3 C13 4.65 13 6.3 13 8 C14.32 8 15.64 8 17 8 C17 8.99 17 9.98 17 11 C15.68 11 14.36 11 13 11 C13 13.97 13 16.94 13 20 C8.71 20 4.42 20 0 20 C0 13.4 0 6.8 0 0 Z " fill="#080808" transform="translate(7,6)"/>
<path d="M0 0 C2.64 0 5.28 0 8 0 C8 0.99 8 1.98 8 3 C6.35 3 4.7 3 3 3 C3 4.65 3 6.3 3 8 C4.32 8 5.64 8 7 8 C7 8.99 7 9.98 7 11 C5.68 11 4.36 11 3 11 C3 12.98 3 14.96 3 17 C4.65 17 6.3 17 8 17 C8 17.99 8 18.98 8 20 C5.36 20 2.72 20 0 20 C0 13.4 0 6.8 0 0 Z " fill="#ECECEC" transform="translate(7,6)"/>
<path d="M0 0 C2.64 0 5.28 0 8 0 C8 0.99 8 1.98 8 3 C6.35 3 4.7 3 3 3 C3 4.65 3 6.3 3 8 C4.32 8 5.64 8 7 8 C7 8.99 7 9.98 7 11 C5.68 11 4.36 11 3 11 C3 13.97 3 16.94 3 20 C2.01 20 1.02 20 0 20 C0 13.4 0 6.8 0 0 Z " fill="#ECECEC" transform="translate(17,6)"/>
</svg>
